<svg version="1.1" id="Layer_1" xmlns="http://www.w3.org/2000/svg" xmlns:xlink="http://www.w3.org/1999/xlink" x="0px" y="0px"
	 width="100%" viewBox="0 0 1024 448" enable-background="new 0 0 1024 448" xml:space="preserve">
<path fill="#000000" opacity="1.000000" stroke="none" 
	d="
M241.764877,122.660286 
	C276.594116,121.059822 310.128418,124.716347 342.207428,137.320328 
	C341.973755,140.384338 340.132263,140.341599 338.838715,140.750061 
	C313.112854,148.873734 289.366669,161.263626 265.995026,174.464828 
	C234.111282,192.473984 201.006866,207.508240 165.172333,215.907120 
	C158.167313,217.548965 158.198517,217.526520 156.296509,210.639328 
	C151.101746,191.829102 147.484467,172.727173 145.054138,153.364685 
	C144.427887,148.375381 145.961945,145.749146 150.444809,143.666443 
	C173.793503,132.818787 198.362427,126.592117 223.859802,123.802773 
	C229.642395,123.170181 235.479736,123.037903 241.764877,122.660286 
z"/>
<path fill="#000000" opacity="1.000000" stroke="none" 
	d="
M305.032227,240.017715 
	C326.317627,222.179504 347.375732,204.621155 367.611145,185.574341 
	C369.426300,188.449310 368.274963,190.932236 367.912018,193.201889 
	C361.316528,234.447922 345.525665,271.750671 319.873566,304.815338 
	C303.845215,325.475433 285.437256,343.619446 263.996674,358.682465 
	C260.405640,361.205353 257.921112,361.141998 254.313202,358.608673 
	C237.269363,346.640930 222.616440,332.205048 209.441330,316.193573 
	C205.620346,311.550018 205.883713,311.047180 211.112900,308.179688 
	C235.590118,294.757355 257.896118,278.183044 279.626617,260.791168 
	C288.074371,254.030045 296.384613,247.097153 305.032227,240.017715 
z"/>
<path fill="#000000" opacity="1.000000" stroke="none" 
	d="
M342.450684,195.465820 
	C307.272766,223.943192 274.320343,254.639206 236.914749,279.763428 
	C224.609650,288.028381 212.019073,295.835022 199.320312,303.473022 
	C197.250290,304.718109 195.275574,305.851654 193.135147,303.442657 
	C185.269150,294.589691 177.794937,285.449799 171.911285,275.117798 
	C171.602432,274.575470 171.570999,273.875122 171.304855,272.836334 
	C178.793365,269.583710 186.251144,266.457764 193.615738,263.125824 
	C223.703354,249.513397 252.273544,233.108154 280.426331,215.925507 
	C309.734039,198.037979 337.776337,178.327164 365.018829,157.462326 
	C373.093994,151.277603 380.647430,144.483597 387.353271,136.798294 
	C388.118866,135.920868 388.821838,134.987106 389.528381,134.060074 
	C399.639709,120.793243 396.313263,111.911980 380.111603,108.568741 
	C377.163452,107.960381 373.812561,108.893883 371.025421,106.627502 
	C377.421387,102.895790 391.615509,105.045502 398.398224,110.576233 
	C404.094940,115.221466 405.507080,122.531898 402.445404,131.103775 
	C398.758667,141.425659 391.744385,149.507248 384.336517,157.153778 
	C371.239624,170.672623 357.033173,183.022873 342.450684,195.465820 
z"/>
<path fill="#000000" opacity="1.000000" stroke="none" 
	d="
M234.413589,236.480652 
	C213.918915,247.464127 192.872772,256.130768 171.019638,262.917053 
	C166.347992,264.367767 163.463959,263.816254 160.884811,259.180511 
	C156.019348,250.435440 151.536087,241.525131 147.394958,232.430359 
	C146.721451,230.951172 145.880768,229.435654 146.540848,227.422379 
	C153.121552,226.370041 159.873978,225.653992 166.454910,224.174973 
	C195.145477,217.726959 222.604767,207.561600 249.594070,196.056519 
	C258.938080,192.073349 267.897217,186.863907 277.565216,184.038849 
	C292.704346,179.615082 304.760071,169.576401 318.871887,163.343384 
	C332.877960,157.157059 346.023590,149.181961 358.727875,140.553970 
	C363.575195,137.261963 368.136536,133.671295 372.172180,129.434067 
	C374.216064,127.288055 376.978882,125.119507 375.396698,121.731308 
	C373.954254,118.642418 370.652313,118.307358 367.623474,118.233475 
	C361.796539,118.091354 355.964996,118.148766 350.135773,118.084053 
	C348.728027,118.068420 347.322021,117.899162 345.915649,117.374451 
	C356.236755,113.885063 366.667908,111.434563 377.500092,114.445847 
	C385.015442,116.535072 387.232117,121.510147 383.915436,128.661392 
	C379.212585,138.801300 370.861176,145.987473 362.437683,152.666885 
	C322.419128,184.399643 279.919983,212.416214 234.413589,236.480652 
z"/>
<path fill="#000000" opacity="1.000000" stroke="none" 
	d="
M686.000122,166.606689 
	C701.975525,167.067474 717.441284,165.670822 732.929871,166.444580 
	C736.562561,166.626053 737.928345,167.599670 738.028625,171.283615 
	C738.325806,182.205322 738.442017,182.201843 727.400513,182.194321 
	C713.079895,182.184555 698.753967,182.396881 684.441528,182.049301 
	C679.225464,181.922607 677.879211,183.712265 678.059448,188.648071 
	C678.483582,200.263901 676.817017,198.874298 688.663330,198.925613 
	C701.817932,198.982605 714.975464,199.037476 728.126709,198.807159 
	C732.717285,198.726761 734.647095,200.418259 734.132996,204.933456 
	C734.114319,205.097702 734.131714,205.266205 734.134155,205.432709 
	C734.263977,214.298523 734.263977,214.293625 725.628662,214.285217 
	C711.807678,214.271744 697.984192,214.408600 684.167053,214.173004 
	C679.760315,214.097870 677.968018,215.177658 678.056702,219.980194 
	C678.292664,232.751938 678.084900,232.762939 691.083130,232.762817 
	C705.070679,232.762711 719.061279,232.908371 733.044128,232.648239 
	C737.722839,232.561218 739.462524,234.305573 739.067871,238.752747 
	C738.935730,240.242020 738.928772,241.750031 738.975464,243.246002 
	C739.095764,247.094284 737.300171,248.363159 733.471313,248.342850 
	C710.492493,248.220901 687.512024,248.221298 664.533630,248.395447 
	C660.214600,248.428177 658.692566,247.049393 658.720703,242.668076 
	C658.871460,219.189987 658.871948,195.709702 658.700134,172.231827 
	C658.667786,167.808319 660.223694,166.381958 664.521484,166.544159 
	C671.505188,166.807709 678.506287,166.609482 686.000122,166.606689 
z"/>
<path fill="#000000" opacity="1.000000" stroke="none" 
	d="
M434.981628,240.075134 
	C447.163269,216.884995 459.255829,194.068222 471.085968,171.116180 
	C472.956421,167.487320 475.149384,165.959625 479.181793,166.025894 
	C484.499451,166.113266 489.812408,166.880066 495.149963,166.187424 
	C498.416321,165.763535 499.810181,168.126663 501.101501,170.574249 
	C509.885071,187.222931 518.686218,203.862350 527.489868,220.500412 
	C531.073669,227.273468 534.718201,234.014771 538.248230,240.815598 
	C539.291321,242.825256 540.840149,244.708618 540.536804,248.115250 
	C534.502075,248.115250 528.444092,248.244598 522.396912,248.044876 
	C520.289978,247.975281 519.754578,245.708878 518.915527,244.130203 
	C511.223419,229.657791 511.229004,229.592209 494.667969,230.489319 
	C485.340729,230.994568 476.021393,231.162933 466.701447,230.542053 
	C462.962860,230.292999 460.196320,231.463593 458.691223,235.074768 
	C458.244354,236.146896 457.715546,237.212418 457.054230,238.162598 
	C454.811951,241.384094 454.727386,246.920258 450.669403,247.816818 
	C444.801605,249.113205 438.550720,248.476898 432.546539,247.926270 
	C431.881805,244.506729 433.959320,242.659958 434.981628,240.075134 
M497.135895,214.993423 
	C498.845551,214.738892 500.843567,215.622406 502.542908,213.256851 
	C497.482147,203.520096 492.316681,193.581833 486.370880,182.142273 
	C480.273071,193.679459 474.924591,203.798950 469.006104,214.996887 
	C478.994751,214.996887 487.610626,214.996887 497.135895,214.993423 
z"/>
<path fill="#000000" opacity="1.000000" stroke="none" 
	d="
M609.952637,166.599823 
	C613.268555,166.748840 616.152649,166.581558 618.907654,167.100113 
	C639.141296,170.908356 648.722107,195.085541 636.584473,211.961090 
	C631.046021,219.661560 622.631470,221.954987 613.696899,222.176102 
	C602.537537,222.452286 591.366211,222.248352 580.200073,222.249893 
	C573.442932,222.250824 573.427673,222.249161 573.373901,228.781433 
	C573.334106,233.614288 573.194092,238.453033 573.375122,243.278793 
	C573.508850,246.844666 572.335388,248.419388 568.541748,248.324875 
	C551.306458,247.895523 554.150269,250.856125 553.982178,234.434036 
	C553.779236,214.603653 553.932312,194.769592 553.940002,174.937119 
	C553.943359,166.283981 554.045593,166.237640 562.472534,166.307663 
	C578.135132,166.437820 593.798218,166.506683 609.952637,166.599823 
M614.869995,183.361618 
	C601.839722,180.978485 588.702148,182.697113 575.617920,182.387177 
	C573.327942,182.332947 573.319031,184.388718 573.313599,186.082001 
	C573.295898,191.567780 573.396362,197.055634 573.273926,202.538712 
	C573.210754,205.369766 574.312988,206.237717 577.120728,206.217087 
	C587.914246,206.137802 598.700378,206.916367 609.507202,206.170868 
	C616.474365,205.690231 619.489563,203.973892 620.938354,198.724731 
	C622.731445,192.228333 620.918091,187.118561 614.869995,183.361618 
z"/>
<path fill="#000000" opacity="1.000000" stroke="none" 
	d="
M822.655029,169.469193 
	C823.769714,168.428619 824.549988,167.179855 825.530579,166.995209 
	C832.880127,165.611298 840.252563,165.777679 847.631714,166.629486 
	C847.851379,169.771088 845.697449,170.890961 844.312195,172.395645 
	C834.842407,182.682114 825.361938,192.960236 815.747803,203.111237 
	C813.532104,205.450638 813.596558,207.106522 815.753113,209.389511 
	C826.382812,220.642380 836.919739,231.983231 847.433472,243.344864 
	C848.487793,244.484207 850.184448,245.361969 849.872803,247.969879 
	C842.363464,247.969879 834.813965,248.100433 827.275085,247.876312 
	C825.434998,247.821594 824.459229,245.687012 823.254944,244.325058 
	C815.664978,235.741196 808.078369,227.154388 800.011475,218.026337 
	C796.538269,221.915863 793.332947,225.415817 790.228333,229.002884 
	C785.436951,234.538925 780.724670,240.143448 775.953857,245.697418 
	C774.980347,246.830688 773.959961,248.152512 772.346313,248.170197 
	C765.246399,248.247955 758.145142,248.203735 751.203674,248.203735 
	C750.338562,245.264740 752.315369,244.325089 753.459656,243.078552 
	C763.140625,232.532425 772.919189,222.075790 782.590332,211.520737 
	C787.218872,206.469086 787.089966,206.446930 782.576294,201.511780 
	C773.925842,192.053787 765.314209,182.559738 756.756226,173.018127 
	C755.345764,171.445511 753.583374,170.056305 752.724731,166.991516 
	C757.928162,166.728638 762.956909,166.812378 767.882324,166.139771 
	C773.961182,165.309631 777.286072,168.573273 780.730591,172.818665 
	C786.783936,180.279633 793.317749,187.350739 800.205505,195.219391 
	C807.864197,186.437225 815.138733,178.095505 822.655029,169.469193 
z"/>
<path fill="#000000" opacity="1.000000" stroke="none" 
	d="
M805.073975,284.945740 
	C805.219482,282.508301 805.312073,280.513947 805.523804,278.532318 
	C805.676697,277.102417 805.462036,275.349579 807.474365,274.968140 
	C809.189148,274.643066 810.289795,275.750214 811.248108,276.932983 
	C812.713196,278.741272 814.101807,280.611206 815.542358,282.439667 
	C816.946594,284.222015 818.375244,285.985077 820.844177,287.515106 
	C820.844177,284.608612 820.788757,281.700653 820.865845,278.796204 
	C820.909058,277.169098 820.780029,275.133942 823.104248,275.014587 
	C825.756897,274.878296 825.808960,277.114563 825.839478,278.890564 
	C825.927917,284.042969 825.884583,289.199158 825.792053,294.352081 
	C825.765930,295.809784 825.722961,297.503418 823.828796,297.956787 
	C822.075745,298.376404 821.064148,297.161346 820.133789,295.957031 
	C817.138000,292.079071 814.159485,288.187775 810.113892,284.637909 
	C810.113892,288.070374 810.151123,291.503448 810.097168,294.935059 
	C810.072388,296.507660 809.721558,298.069946 807.700989,298.049896 
	C805.591980,298.028992 805.579285,296.418640 805.524475,294.846527 
	C805.414368,291.694366 805.227295,288.544861 805.073975,284.945740 
z"/>
<path fill="#000000" opacity="1.000000" stroke="none" 
	d="
M566.566772,283.599121 
	C566.133057,286.435852 564.496765,288.106873 562.781616,289.574280 
	C562.849731,292.778107 566.144592,294.279999 566.374939,297.475891 
	C564.117554,298.824158 562.336365,298.111237 560.839233,296.250977 
	C559.691650,294.825073 558.684631,293.286957 557.569031,291.834137 
	C556.686157,290.684509 555.503479,290.190094 554.046448,290.493958 
	C552.313660,290.855316 552.303650,292.243561 552.183777,293.590881 
	C552.010254,295.542206 552.276611,298.089996 549.387268,297.959564 
	C546.527100,297.830383 546.934143,295.253723 546.918518,293.335266 
	C546.879211,288.504883 546.997314,283.673462 546.996704,278.842438 
	C546.996338,275.963196 548.224182,274.521576 551.236694,274.695984 
	C553.395752,274.821014 555.570251,274.662018 557.731873,274.760529 
	C563.660156,275.030701 565.849548,277.147247 566.566772,283.599121 
M557.936951,279.234894 
	C555.813293,279.458862 552.952454,278.074615 552.257629,281.532410 
	C551.934082,283.142365 551.842834,285.209564 553.966797,285.649078 
	C556.544006,286.182434 559.535522,286.657074 561.135193,283.804291 
	C562.422119,281.509155 560.924988,280.089661 557.936951,279.234894 
z"/>
<path fill="#000000" opacity="1.000000" stroke="none" 
	d="
M783.901672,298.678162 
	C777.718689,298.438995 773.673584,295.696869 772.015686,290.079529 
	C770.578918,285.211578 771.718750,280.784546 775.521484,277.335358 
	C779.178589,274.018280 783.522095,273.457428 788.096375,275.084473 
	C792.978027,276.820862 796.376587,282.173492 795.988708,287.231598 
	C795.490845,293.724426 791.814514,297.316406 783.901672,298.678162 
M784.226685,278.797913 
	C777.888062,279.673950 774.688538,284.090607 776.816528,289.187653 
	C778.242859,292.603882 780.863586,294.355927 784.646973,293.881653 
	C788.180115,293.438782 790.352600,291.484863 790.737000,287.828430 
	C791.212891,283.301971 789.694519,280.054749 784.226685,278.797913 
z"/>
<path fill="#000000" opacity="1.000000" stroke="none" 
	d="
M657.670288,298.635284 
	C650.309631,298.089661 646.298523,295.236633 644.929199,289.905182 
	C643.483704,284.277100 645.570068,278.781067 650.192566,276.040131 
	C654.717773,273.356903 660.532654,273.793610 664.564209,277.307739 
	C668.069214,280.362854 669.550049,284.238556 668.576843,288.891388 
	C667.379272,294.617401 663.805542,297.784882 657.670288,298.635284 
M649.478760,284.200928 
	C649.411255,285.022705 649.244751,285.850250 649.292480,286.665283 
	C649.573120,291.456024 652.777222,294.274719 657.428101,293.878174 
	C661.964966,293.491333 664.447327,289.995544 663.724670,285.043945 
	C663.238770,281.714935 661.333008,279.500366 658.103027,278.915161 
	C654.264954,278.219757 651.345215,279.790009 649.478760,284.200928 
z"/>
<path fill="#000000" opacity="1.000000" stroke="none" 
	d="
M459.706696,285.022980 
	C459.864258,273.402252 458.611145,274.714233 469.671509,274.819550 
	C472.182831,274.843475 476.808899,273.125366 476.850067,276.650940 
	C476.897980,280.750244 472.131378,278.360229 469.545380,279.056213 
	C468.764648,279.266296 467.887939,279.100281 467.057831,279.150391 
	C465.545044,279.241669 464.462830,279.870605 464.526978,281.566467 
	C464.591705,283.277161 465.789185,283.748932 467.256409,283.813629 
	C469.250702,283.901581 471.251495,283.906464 473.238495,284.075928 
	C474.674255,284.198395 475.913818,284.854279 475.795319,286.529541 
	C475.690918,288.005615 474.419830,288.254272 473.213501,288.305115 
	C471.717651,288.368225 470.209167,288.456177 468.721954,288.336700 
	C464.818451,288.023193 464.208313,290.010101 464.995117,293.253326 
	C468.201813,294.450439 471.403595,293.574005 474.501648,293.961487 
	C475.898346,294.136169 477.238861,294.497101 477.223450,296.241577 
	C477.206940,298.113403 475.716095,298.138458 474.369507,298.235443 
	C473.872131,298.271301 473.371155,298.273926 472.872131,298.267181 
	C457.620819,298.060699 459.954071,300.283234 459.706696,285.022980 
z"/>
<path fill="#000000" opacity="1.000000" stroke="none" 
	d="
M575.720276,282.087158 
	C575.836731,274.726685 575.836731,274.720093 582.616882,274.700409 
	C585.112488,274.693176 587.608826,274.695312 590.103577,274.750549 
	C591.619263,274.784119 593.371643,274.805634 593.298096,276.939392 
	C593.226135,279.027191 591.410339,278.963470 589.947998,279.041199 
	C587.956177,279.147125 585.955872,279.082794 583.960083,279.130157 
	C582.224121,279.171326 580.437134,279.304932 580.532471,281.692871 
	C580.615540,283.775238 582.273071,283.823059 583.799927,283.894592 
	C585.295288,283.964691 586.797791,283.929565 588.287720,284.053741 
	C589.774536,284.177643 591.583435,284.257233 591.658508,286.230377 
	C591.741760,288.418823 589.831970,288.189026 588.387451,288.269867 
	C586.893921,288.353363 585.393616,288.326996 583.896301,288.330536 
	C582.032227,288.334900 580.585510,288.859467 580.483765,291.050537 
	C580.376282,293.365967 581.894531,293.780396 583.741089,293.799408 
	C585.903748,293.821686 588.067627,293.813934 590.228516,293.889496 
	C591.790100,293.944061 593.400024,294.193634 593.327759,296.260712 
	C593.264832,298.063385 591.761047,298.133942 590.407104,298.235748 
	C590.075684,298.260681 589.741882,298.271027 589.409607,298.264771 
	C572.788696,297.952209 576.181641,301.029144 575.720276,282.087158 
z"/>
<path fill="#000000" opacity="1.000000" stroke="none" 
	d="
M447.817444,280.079834 
	C445.523651,279.636871 443.629150,278.919830 441.679626,278.707489 
	C440.364105,278.564270 438.945282,279.300079 438.588867,280.770874 
	C438.178741,282.463165 439.571320,283.066742 440.836639,283.555023 
	C443.007935,284.392975 445.284637,285.002228 447.365967,286.017334 
	C449.801819,287.205444 451.122681,289.347656 450.906372,292.111908 
	C450.694244,294.822357 449.206055,296.797119 446.672302,297.815948 
	C442.327240,299.563049 438.178345,298.865234 434.260132,296.507904 
	C432.897949,295.688385 431.807159,294.564514 432.865570,292.830566 
	C433.776154,291.338867 435.026825,291.657623 436.325836,292.388367 
	C438.401794,293.556244 440.613068,294.222290 443.029083,293.847351 
	C444.048706,293.689148 445.021210,293.345367 445.261475,292.190338 
	C445.502991,291.029449 444.777374,290.218933 443.854431,289.804840 
	C442.038025,288.989960 440.140900,288.355621 438.280243,287.638611 
	C435.276825,286.481293 432.864594,284.703674 433.167542,281.118958 
	C433.466675,277.578827 435.605377,275.513794 439.090210,274.595612 
	C442.178070,273.782013 445.043762,274.097443 447.787323,275.564453 
	C450.061646,276.780548 450.720001,278.293732 447.817444,280.079834 
z"/>
<path fill="#000000" opacity="1.000000" stroke="none" 
	d="
M841.104553,280.546448 
	C841.550964,284.154877 844.633118,283.790039 846.774963,284.599365 
	C852.082825,286.605103 854.101990,289.113617 853.191345,293.148651 
	C852.330505,296.963043 848.079834,299.449005 843.296570,298.812561 
	C841.149841,298.526917 839.030212,298.002686 837.200195,296.736420 
	C835.961243,295.879181 834.497620,295.013092 835.482971,293.168060 
	C836.442505,291.371460 837.898804,291.753479 839.306030,292.630035 
	C841.398010,293.933167 843.665710,294.187866 846.037231,293.805725 
	C847.073608,293.638702 847.980042,293.190979 848.153137,292.020782 
	C848.330078,290.825226 847.510742,290.100952 846.585327,289.742981 
	C844.727173,289.024261 842.774292,288.554199 840.899597,287.873627 
	C837.682495,286.705750 835.337402,284.868896 835.729736,280.939514 
	C836.100586,277.224609 838.407959,275.470612 841.739990,274.508789 
	C844.467651,273.721436 847.036011,274.225616 849.547729,275.193024 
	C851.078125,275.782471 852.958191,276.461151 851.959961,278.717377 
	C851.179871,280.480621 849.688538,280.261932 848.127686,279.656891 
	C845.756042,278.737579 843.337463,277.953644 841.104553,280.546448 
z"/>
<path fill="#000000" opacity="1.000000" stroke="none" 
	d="
M627.033081,298.848999 
	C624.331848,298.458862 622.039429,298.023346 620.066589,296.660950 
	C618.798889,295.785522 617.488098,294.836273 618.596863,293.042114 
	C619.502197,291.577240 620.799805,291.857910 622.089661,292.514465 
	C623.740356,293.354706 625.467407,293.951416 627.337646,293.917786 
	C628.818237,293.891235 630.632141,294.047333 631.101135,292.239502 
	C631.600464,290.314636 629.862854,289.741486 628.473816,289.227417 
	C626.920105,288.652374 625.289612,288.287872 623.723083,287.743744 
	C620.640869,286.673187 618.511841,284.839325 618.678223,281.219055 
	C618.851074,277.459747 621.108337,275.604462 624.486145,274.721863 
	C627.327332,273.979523 630.096252,274.141724 632.745117,275.436493 
	C634.115723,276.106445 635.580322,276.874908 634.672607,278.807098 
	C633.951599,280.341797 632.654114,280.212372 631.258057,279.767487 
	C629.841248,279.315918 628.391663,278.775940 626.934204,278.699799 
	C625.621948,278.631256 624.144043,279.155609 623.765503,280.642181 
	C623.329834,282.353363 624.824707,282.916382 626.032532,283.407867 
	C627.413574,283.969849 628.881348,284.314758 630.297424,284.795135 
	C633.674255,285.940613 636.382568,287.738739 636.170654,291.812134 
	C635.951538,296.025635 633.262024,297.894287 629.389771,298.487244 
	C628.733154,298.587830 628.083191,298.731842 627.033081,298.848999 
z"/>
<path fill="#000000" opacity="1.000000" stroke="none" 
	d="
M531.909546,282.061493 
	C532.494385,279.263336 530.513367,275.167572 534.352722,275.075073 
	C538.734558,274.969482 536.922913,279.264709 537.091736,281.718658 
	C537.317993,285.007904 537.450684,288.373810 536.389343,291.622528 
	C534.759705,296.610992 530.392151,299.427368 525.231567,298.755127 
	C520.141541,298.092102 516.921997,294.706421 516.657288,289.342804 
	C516.460632,285.358582 516.596558,281.356995 516.621094,277.363342 
	C516.628662,276.127167 516.927429,275.012360 518.469727,274.887482 
	C520.140686,274.752167 521.020081,275.688202 521.084961,277.208069 
	C521.226868,280.532227 521.259460,283.863129 521.250610,287.191071 
	C521.240723,290.930237 522.130249,293.953827 526.665894,293.885590 
	C531.196289,293.817413 532.010437,290.735474 531.922180,287.025513 
	C531.886597,285.528015 531.912781,284.029083 531.909546,282.061493 
z"/>
<path fill="#000000" opacity="1.000000" stroke="none" 
	d="
M701.781494,290.453857 
	C701.731567,286.177185 701.689270,282.344879 701.729370,278.513428 
	C701.744812,277.046692 701.595459,275.185913 703.686890,275.085724 
	C706.071838,274.971527 706.090393,276.953278 706.139221,278.624725 
	C706.231750,281.788361 706.156433,284.957886 706.289062,288.119110 
	C706.433960,291.572327 708.001648,293.842377 711.770874,293.880676 
	C715.734680,293.920929 716.885681,291.434357 716.915161,288.000519 
	C716.943665,284.668945 716.923218,281.336090 717.015381,278.006317 
	C717.059265,276.422546 717.518860,274.872040 719.493835,274.916077 
	C721.421387,274.959015 721.920471,276.517639 721.966553,278.082642 
	C722.069519,281.577789 722.211792,285.087585 722.009583,288.572357 
	C721.668823,294.446014 718.242126,298.099945 712.882935,298.682861 
	C707.341980,299.285553 703.880554,296.849518 701.781494,290.453857 
z"/>
<path fill="#000000" opacity="1.000000" stroke="none" 
	d="
M500.455078,279.267700 
	C496.496246,278.752411 493.209503,279.303986 491.745514,283.017792 
	C490.547516,286.056854 490.423340,289.352631 493.067657,291.833313 
	C495.773254,294.371490 499.015778,294.577240 502.313751,292.941193 
	C503.874878,292.166779 505.565063,291.231323 506.560699,293.343353 
	C507.664490,295.684784 505.515533,296.541595 503.987183,297.397949 
	C498.997986,300.193695 492.087341,298.763031 488.682434,294.324219 
	C484.992004,289.513184 485.156738,282.610413 489.066315,278.238373 
	C492.965332,273.878143 500.310822,272.840790 505.038239,275.988556 
	C506.328461,276.847656 507.736847,277.843719 506.553894,279.560577 
	C504.659607,282.309753 502.749115,279.712311 500.455078,279.267700 
z"/>
<path fill="#000000" opacity="1.000000" stroke="none" 
	d="
M736.905029,291.841370 
	C736.886353,288.884613 736.775391,286.397766 736.861084,283.917694 
	C736.959290,281.076233 736.383057,279.019165 732.906738,279.032196 
	C731.355957,279.038025 729.745972,278.447632 730.037842,276.451691 
	C730.283752,274.770233 731.891113,274.778931 733.208130,274.761871 
	C737.347534,274.708252 741.487976,274.686066 745.627502,274.717438 
	C747.136169,274.728882 748.827576,274.830048 748.846802,276.907806 
	C748.862793,278.629272 747.416626,279.099426 746.066223,279.073456 
	C742.226440,278.999603 741.904541,281.414215 741.990601,284.349365 
	C742.082764,287.492371 742.086121,290.642273 741.989563,293.784912 
	C741.936401,295.513611 742.348206,297.866943 739.744507,298.028503 
	C736.812256,298.210480 737.030273,295.775604 736.907959,293.804413 
	C736.877258,293.309448 736.900940,292.811066 736.905029,291.841370 
z"/>
<path fill="#000000" opacity="1.000000" stroke="none" 
	d="
M687.207886,293.834473 
	C689.832092,294.309601 693.643799,292.535126 693.685303,296.044159 
	C693.727783,299.623810 689.890198,298.244080 687.724670,298.257721 
	C677.779236,298.320404 678.051392,299.442413 678.045410,288.608490 
	C678.043396,284.970032 678.037109,281.329620 678.154541,277.694061 
	C678.199036,276.316833 678.760071,275.000488 680.421570,274.918945 
	C682.402405,274.821747 682.959961,276.286682 683.005493,277.863922 
	C683.120239,281.833466 683.161377,285.807587 683.112915,289.778442 
	C683.081604,292.347717 683.885986,293.976837 687.207886,293.834473 
z"/>
<path fill="#000000" opacity="1.000000" stroke="none" 
	d="
M757.720093,288.944885 
	C757.732971,285.149231 757.718323,281.842590 757.768494,278.536957 
	C757.793945,276.857910 757.831665,274.943054 760.131958,274.911102 
	C762.499634,274.878235 762.602722,276.765839 762.401367,278.468475 
	C761.776611,283.752563 763.537964,289.011047 762.507874,294.289459 
	C762.205811,295.837250 762.533264,298.007507 760.170471,297.974884 
	C757.518860,297.938232 757.874146,295.647125 757.765869,293.896667 
	C757.674194,292.413910 757.729248,290.922150 757.720093,288.944885 
z"/>
<path fill="#000000" opacity="1.000000" stroke="none" 
	d="
M403.076721,142.249207 
	C403.936920,140.649918 403.973846,138.984756 406.559021,137.418060 
	C406.628815,142.534332 405.629944,146.555679 403.133026,150.209381 
	C401.413788,152.725113 398.652802,154.830704 401.490448,158.334671 
	C402.236389,159.255753 401.813995,160.654480 400.627716,161.352463 
	C399.563812,161.978439 398.712341,161.265778 397.977081,160.593765 
	C396.581116,159.317856 395.302124,157.889008 396.271942,155.828751 
	C398.023468,152.108002 399.883179,148.438049 401.711884,144.753922 
	C402.081665,144.008987 402.514557,143.295349 403.076721,142.249207 
z"/>
<path fill="#000000" opacity="1.000000" stroke="none" 
	d="
M341.764435,148.841873 
	C339.089203,148.395630 337.905060,146.980743 338.126862,144.631973 
	C338.262634,143.194336 339.200745,142.216339 340.604889,141.805389 
	C342.212494,141.334885 343.705627,141.731918 344.577148,143.120010 
	C346.433197,146.076233 344.836945,147.730682 341.764435,148.841873 
z"/>
<path fill="#000000" opacity="1.000000" stroke="none" 
	d="
M387.357178,169.014374 
	C387.050934,162.420410 387.921265,161.415985 394.234314,162.159302 
	C387.473358,163.501541 387.985443,167.026382 390.394043,170.955750 
	C388.417694,171.567856 388.035126,170.316238 387.357178,169.014374 
z"/>
</svg>